<?xml version="1.0" standalone="no"?><!DOCTYPE svg PUBLIC "-//W3C//DTD SVG 1.1//EN" "http://www.w3.org/Graphics/SVG/1.1/DTD/svg11.dtd"><svg t="1591927168125" class="icon" viewBox="0 0 1024 1024" version="1.1" xmlns="http://www.w3.org/2000/svg" p-id="6053" xmlns:xlink="http://www.w3.org/1999/xlink" width="200" height="200"><defs><style type="text/css"></style></defs><path d="M1005.8 834.9h-94.5c-10.1 0-18.2-8.2-18.2-18.2v-33.5c0-10.1 8.2-18.2 18.2-18.2h24.5c10.1 0 18.2-8.2 18.2-18.2V277.3c0-10.1-8.2-18.2-18.2-18.2h-24.5c-10.1 0-18.2-8.2-18.2-18.2v-33.5c0-10.1 8.2-18.2 18.2-18.2h94.5c10.1 0 18.2 8.2 18.2 18.2v609.4c0 10-8.2 18.1-18.2 18.1zM18.2 834.9h94.5c10.1 0 18.2-8.2 18.2-18.2v-33.5c0-10.1-8.2-18.2-18.2-18.2H88.2c-10.1 0-18.2-8.2-18.2-18.2V277.3c0-10.1 8.2-18.2 18.2-18.2h24.5c10.1 0 18.2-8.2 18.2-18.2v-33.5c0-10.1-8.2-18.2-18.2-18.2H18.2c-10-0.1-18.2 8-18.2 18.1v609.4c0 10.1 8.2 18.2 18.2 18.2zM757.5 921.1h-491c-42.7 0-77.5-34.7-77.5-77.5V180.3c0-42.7 34.7-77.5 77.5-77.5h491c42.7 0 77.5 34.7 77.5 77.5v663.4c-0.1 42.7-34.8 77.4-77.5 77.4z m-491-748.2c-4.1 0-7.5 3.3-7.5 7.5v663.4c0 4.1 3.3 7.5 7.5 7.5h491c4.1 0 7.5-3.3 7.5-7.5V180.3c0-4.1-3.3-7.5-7.5-7.5h-491z" p-id="6054"></path><path d="M772.3 786.3L670.9 654.4c-12.2-15.9-35.2-18.3-50.5-5.3l-82.2 70.2c-15.7 13.4-39.5 10.4-51.3-6.5L396.2 584c-11.7-16.6-34.9-19.8-50.7-7L246 657.8c-15 12.2-37.1 9.9-49.2-5.1-12.2-15-9.9-37.1 5.1-49.2l157.7-128c15.7-12.8 39-9.5 50.7 7l89.6 127.2c11.9 16.8 35.7 19.8 51.3 6.5l79.8-68.1c15.2-13 38.3-10.6 50.5 5.3l146.3 190.3c11.8 15.3 8.9 37.3-6.4 49.1-15.3 11.7-37.3 8.8-49.1-6.5zM575.3 458.2c-13.6 0-27.4-2.6-40.8-8.1-55.1-22.6-81.5-85.7-58.9-140.8 22.6-55.1 85.7-81.5 140.8-58.9 26.6 10.9 47.4 31.6 58.5 58.2 11.2 26.6 11.3 56 0.4 82.6-17.1 41.7-57.5 67-100 67z m0.3-166c-7.6 0-15.3 1.5-22.6 4.6-14.4 6-25.5 17.2-31.4 31.5-5.9 14.3-5.8 30.1 0.3 44.4 6 14.4 17.2 25.5 31.5 31.4l-9.4 23 9.4-23c29.6 12.1 63.6-2.1 75.8-31.7 5.9-14.3 5.8-30.1-0.3-44.4-6-14.4-17.2-25.5-31.5-31.4-7-2.9-14.4-4.4-21.8-4.4z" p-id="6055"></path></svg>